<svg width="23" height="17" viewBox="0 0 23 17" fill="none" xmlns="http://www.w3.org/2000/svg">
<g clip-path="url(#clip0_140_136)">
<path d="M11.6284 9.47891V4.12556C11.3589 4.16999 11.1021 4.21047 10.8454 4.2549C9.2167 4.5353 7.58822 4.81626 5.95996 5.09776C5.77769 5.13067 5.59642 5.1672 5.41313 5.19024C5.31609 5.20209 5.29015 5.24685 5.29689 5.3311C5.30026 5.37454 5.29689 5.41864 5.29689 5.46274C5.29689 7.87086 5.28274 10.279 5.30397 12.6868C5.31205 13.6083 4.87843 14.2336 4.06609 14.6032C2.94682 15.11 1.82384 15.0728 0.813736 14.3468C-0.322719 13.5303 -0.254323 12.1398 0.929302 11.3848C1.76522 10.852 2.67728 10.7819 3.6264 11.0389C3.67459 11.0521 3.72175 11.0675 3.79992 11.0909V2.2483C3.79992 1.68025 4.03577 1.40873 4.61461 1.30868C6.9439 0.905845 9.27274 0.502901 11.6011 0.0998471C11.7723 0.0702269 11.9445 0.0468602 12.1153 0.016911C12.6881 -0.0818229 13.1261 0.272631 13.1261 0.843313C13.1261 2.19268 13.1261 3.54204 13.1261 4.8914C13.1261 6.96481 13.1136 9.03823 13.1325 11.1116C13.1399 11.9094 12.7851 12.4738 12.1187 12.8813C11.1193 13.4921 9.64931 13.4533 8.69211 12.7806C8.11933 12.3784 7.77263 11.8426 7.84979 11.1288C7.92054 10.4728 8.31913 10.015 8.88752 9.69645C9.68975 9.24754 10.5418 9.18666 11.4249 9.42C11.4842 9.43547 11.5422 9.4539 11.6284 9.47891ZM4.29521 4.14201C4.69615 3.07832 5.20861 2.10974 6.28948 1.52787C6.26676 1.52067 6.24322 1.51625 6.2194 1.5147C5.71704 1.60291 5.21333 1.6842 4.71367 1.78392C4.44413 1.83756 4.2733 2.08933 4.27971 2.35822C4.28779 2.68733 4.29184 3.01645 4.29487 3.34556C4.29723 3.60951 4.29521 3.8751 4.29521 4.14201ZM2.45221 11.3957C2.45221 11.1982 2.39797 11.1472 2.21636 11.1844C1.45592 11.3394 0.849113 11.7172 0.445475 12.3767C0.371266 12.4992 0.312441 12.6299 0.270273 12.7661C0.254774 12.8164 0.308682 12.8872 0.33092 12.9484C0.381122 12.9293 0.440758 12.9204 0.479841 12.8879C0.531754 12.8377 0.578372 12.7826 0.618992 12.7233C1.05295 12.1757 1.5853 11.7669 2.28847 11.6027C2.41919 11.5721 2.46434 11.498 2.45221 11.3947V11.3957ZM10.3606 9.77939C10.3606 9.5862 10.2932 9.53354 10.0823 9.58192C9.22984 9.77511 8.58463 10.2309 8.2167 11.0224C8.17357 11.1153 8.0607 11.2433 8.21131 11.3265C8.35181 11.4039 8.40268 11.2509 8.46502 11.1725C8.9202 10.5989 9.4694 10.1595 10.2086 9.98476C10.3279 9.95514 10.373 9.87911 10.3606 9.7784V9.77939Z" fill="url(#paint0_linear_140_136)"/>
<path d="M18.8228 6.44567V6.65795C18.8228 9.37313 18.8134 12.0883 18.8285 14.8035C18.8329 15.568 18.5074 16.1381 17.8612 16.5113C16.7244 17.1678 15.5546 17.1695 14.4397 16.4747C13.1675 15.6796 13.249 14.1153 14.5799 13.364C15.3909 12.9062 16.2568 12.8519 17.15 13.0931L17.3346 13.1421V12.9167C17.3346 9.75721 17.3346 6.59772 17.3346 3.43824C17.3346 2.8929 17.8319 2.55161 18.3535 2.73427C18.6348 2.833 18.8144 3.0907 18.8211 3.41059C18.8373 4.16558 19.1432 4.78201 19.7645 5.23322C20.0428 5.4353 20.3454 5.60611 20.6405 5.78547C21.1169 6.07476 21.5859 6.37261 21.9936 6.75504C22.7743 7.48666 23.0778 8.39238 22.9808 9.42349C22.9377 9.88424 22.8097 10.3368 22.7194 10.7926C22.713 10.8255 22.7086 10.8663 22.6857 10.8844C22.6264 10.9344 22.5509 11.0161 22.4963 11.0069C22.4572 10.9938 22.4219 10.9717 22.3934 10.9425C22.3649 10.9133 22.344 10.8778 22.3326 10.839C22.3154 10.7363 22.3498 10.6234 22.3703 10.5165C22.4795 9.94645 22.5135 9.37511 22.404 8.80081C22.2763 8.12579 21.9097 7.61402 21.309 7.2576C20.5728 6.82119 19.7621 6.59937 18.9252 6.44633C18.8911 6.44379 18.8569 6.44357 18.8228 6.44567ZM15.9859 13.4531C15.9896 13.2583 15.9215 13.1997 15.7379 13.2386C14.8737 13.4209 14.2264 13.8787 13.8511 14.6745C13.806 14.7706 13.6941 14.896 13.8299 14.9822C13.9734 15.073 14.032 14.9128 14.0994 14.8305C14.5519 14.271 15.0802 13.8231 15.8134 13.6585C15.9384 13.6305 16.0027 13.5664 15.9872 13.4528L15.9859 13.4531Z" fill="url(#paint1_linear_140_136)"/>
<path d="M4.29512 4.14189C4.29512 3.87597 4.29714 3.61037 4.29512 3.34445C4.29209 3.01534 4.28804 2.68622 4.27996 2.35711C4.27356 2.08823 4.44539 1.83646 4.71392 1.78281C5.21358 1.68408 5.71729 1.6018 6.21965 1.5136C6.24348 1.51514 6.26701 1.51956 6.28973 1.52676C5.20853 2.10863 4.69606 3.07721 4.29512 4.14189Z" fill="white"/>
<path d="M2.45221 11.3945C2.46434 11.4979 2.41852 11.5719 2.28914 11.6022C1.58597 11.7668 1.05363 12.1752 0.619665 12.7228C0.579045 12.7821 0.532427 12.8372 0.480514 12.8874C0.441431 12.9203 0.381794 12.9289 0.331592 12.948C0.309355 12.8867 0.255447 12.8163 0.270945 12.7656C0.313114 12.6294 0.371939 12.4987 0.446147 12.3763C0.85046 11.7181 1.45693 11.3389 2.21704 11.1839C2.39797 11.1461 2.45154 11.1958 2.45221 11.3945Z" fill="white"/>
<path d="M10.3605 9.77827C10.373 9.87898 10.3268 9.955 10.2085 9.9833C9.46931 10.1581 8.92012 10.5974 8.46493 11.1711C8.4026 11.2494 8.35172 11.4015 8.21123 11.3251C8.06062 11.2418 8.17349 11.1138 8.21662 11.021C8.58454 10.2311 9.22976 9.77366 10.0822 9.58047C10.2938 9.53242 10.3605 9.58508 10.3605 9.77827Z" fill="white"/>
<path d="M15.9872 13.4528C16.0027 13.5664 15.9384 13.6305 15.8151 13.6582C15.0819 13.8227 14.5536 14.2723 14.1011 14.8302C14.0337 14.9124 13.9764 15.0727 13.8316 14.9819C13.6968 14.8956 13.8076 14.7703 13.8528 14.6742C14.2264 13.8784 14.8737 13.4206 15.7396 13.2382C15.9229 13.1994 15.9926 13.2583 15.9872 13.4528Z" fill="white"/>
</g>
<defs>
<linearGradient id="paint0_linear_140_136" x1="6.56635" y1="0.000457764" x2="6.52765" y2="20.5461" gradientUnits="userSpaceOnUse">
<stop stop-color="#F59832"/>
<stop offset="1" stop-color="#FB8E5B"/>
</linearGradient>
<linearGradient id="paint1_linear_140_136" x1="20.2186" y1="2.71165" x2="13.7685" y2="19.1991" gradientUnits="userSpaceOnUse">
<stop stop-color="#FB8E5B"/>
<stop offset="1" stop-color="#F5992F"/>
</linearGradient>
<clipPath id="clip0_140_136">
<rect width="23" height="17" fill="white"/>
</clipPath>
</defs>
</svg>
