<svg width="29" height="17" viewBox="0 0 29 17" fill="none" xmlns="http://www.w3.org/2000/svg">
<path d="M21.5625 13.8125C21.5625 14.9866 20.3725 15.9375 18.9062 15.9375C17.44 15.9375 16.25 14.9866 16.25 13.8125C16.25 12.6384 17.44 11.6875 18.9062 11.6875C20.3725 11.6875 21.5625 12.6384 21.5625 13.8125Z" fill="#E6A742"/>
<path fill-rule="evenodd" clip-rule="evenodd" d="M21.5625 3.1875V13.8125H20.5V3.1875H21.5625Z" fill="#E6A742"/>
<path d="M20.5 2.99625C20.5001 2.75071 20.5853 2.51281 20.7411 2.32298C20.8968 2.13316 21.1135 2.00313 21.3542 1.955L24.5417 1.3175C24.6958 1.2867 24.8548 1.29046 25.0073 1.32852C25.1598 1.36657 25.3019 1.43796 25.4234 1.53755C25.545 1.63714 25.6429 1.76246 25.7102 1.90446C25.7775 2.04646 25.8124 2.20162 25.8125 2.35875V4.25L20.5 5.3125V2.99625Z" fill="#E6A742"/>
<path d="M9.5625 13.8125C9.5625 14.9866 8.3725 15.9375 6.90625 15.9375C5.44 15.9375 4.25 14.9866 4.25 13.8125C4.25 12.6384 5.44 11.6875 6.90625 11.6875C8.3725 11.6875 9.5625 12.6384 9.5625 13.8125Z" fill="#E6A742"/>
<path fill-rule="evenodd" clip-rule="evenodd" d="M9.5625 3.1875V13.8125H8.5V3.1875H9.5625Z" fill="#E6A742"/>
<path d="M8.5 2.99625C8.50015 2.75071 8.58533 2.51281 8.74107 2.32298C8.8968 2.13316 9.11348 2.00313 9.35425 1.955L12.5417 1.3175C12.6958 1.2867 12.8548 1.29046 13.0073 1.32852C13.1598 1.36657 13.3019 1.43796 13.4234 1.53755C13.545 1.63714 13.6429 1.76246 13.7102 1.90446C13.7775 2.04646 13.8124 2.20162 13.8125 2.35875V4.25L8.5 5.3125V2.99625Z" fill="#E6A742"/>
</svg>
