<svg width="47" height="80" viewBox="0 0 47 80" fill="none" xmlns="http://www.w3.org/2000/svg">
<path d="M14.1016 3.625V15H11.7656V3.625H14.1016ZM17.6016 3.625V5.46094H8.32031V3.625H17.6016ZM22.7188 5.57031L19.625 15H17.1328L21.3594 3.625H22.9453L22.7188 5.57031ZM25.2891 15L22.1875 5.57031L21.9375 3.625H23.5391L27.7891 15H25.2891ZM25.1484 10.7656V12.6016H19.1406V10.7656H25.1484ZM33.2734 10.9453H30.375V9.11719H33.2734C33.7214 9.11719 34.0859 9.04427 34.3672 8.89844C34.6484 8.7474 34.8542 8.53906 34.9844 8.27344C35.1146 8.00781 35.1797 7.70833 35.1797 7.375C35.1797 7.03646 35.1146 6.72135 34.9844 6.42969C34.8542 6.13802 34.6484 5.90365 34.3672 5.72656C34.0859 5.54948 33.7214 5.46094 33.2734 5.46094H31.1875V15H28.8438V3.625H33.2734C34.1641 3.625 34.9271 3.78646 35.5625 4.10938C36.2031 4.42708 36.6927 4.86719 37.0312 5.42969C37.3698 5.99219 37.5391 6.63542 37.5391 7.35938C37.5391 8.09375 37.3698 8.72917 37.0312 9.26562C36.6927 9.80208 36.2031 10.2161 35.5625 10.5078C34.9271 10.7995 34.1641 10.9453 33.2734 10.9453Z" fill="#E6A742"/>
<path d="M3.81348 19.8906V27H2.35352V19.8906H3.81348ZM6.00098 19.8906V21.0381H0.200195V19.8906H6.00098ZM12.5391 23.2793V23.6162C12.5391 24.1566 12.4658 24.6416 12.3193 25.0713C12.1729 25.501 11.9661 25.8672 11.6992 26.1699C11.4323 26.4694 11.1133 26.6989 10.7422 26.8584C10.3743 27.0179 9.96582 27.0977 9.5166 27.0977C9.07064 27.0977 8.66211 27.0179 8.29102 26.8584C7.92318 26.6989 7.60417 26.4694 7.33398 26.1699C7.0638 25.8672 6.85384 25.501 6.7041 25.0713C6.55762 24.6416 6.48438 24.1566 6.48438 23.6162V23.2793C6.48438 22.7357 6.55762 22.2507 6.7041 21.8242C6.85059 21.3945 7.05729 21.0283 7.32422 20.7256C7.5944 20.4229 7.91341 20.1917 8.28125 20.0322C8.65234 19.8727 9.06087 19.793 9.50684 19.793C9.95605 19.793 10.3646 19.8727 10.7324 20.0322C11.1035 20.1917 11.4225 20.4229 11.6895 20.7256C11.9596 21.0283 12.168 21.3945 12.3145 21.8242C12.4642 22.2507 12.5391 22.7357 12.5391 23.2793ZM11.0596 23.6162V23.2695C11.0596 22.8919 11.0254 22.5599 10.957 22.2734C10.8887 21.987 10.7878 21.7461 10.6543 21.5508C10.5208 21.3555 10.3581 21.209 10.166 21.1113C9.97396 21.0104 9.75423 20.96 9.50684 20.96C9.25944 20.96 9.03971 21.0104 8.84766 21.1113C8.65885 21.209 8.49772 21.3555 8.36426 21.5508C8.23405 21.7461 8.13477 21.987 8.06641 22.2734C7.99805 22.5599 7.96387 22.8919 7.96387 23.2695V23.6162C7.96387 23.9906 7.99805 24.3226 8.06641 24.6123C8.13477 24.8988 8.23568 25.1413 8.36914 25.3398C8.5026 25.5352 8.66536 25.6833 8.85742 25.7842C9.04948 25.8851 9.26921 25.9355 9.5166 25.9355C9.764 25.9355 9.98372 25.8851 10.1758 25.7842C10.3678 25.6833 10.529 25.5352 10.6592 25.3398C10.7894 25.1413 10.8887 24.8988 10.957 24.6123C11.0254 24.3226 11.0596 23.9906 11.0596 23.6162ZM19.7852 25.1396C19.7852 25.0127 19.7656 24.8988 19.7266 24.7979C19.6908 24.6937 19.6224 24.5993 19.5215 24.5146C19.4206 24.4268 19.279 24.3405 19.0967 24.2559C18.9144 24.1712 18.6784 24.0833 18.3887 23.9922C18.0664 23.888 17.7604 23.7708 17.4707 23.6406C17.1842 23.5104 16.9303 23.359 16.709 23.1865C16.4909 23.0107 16.3184 22.8073 16.1914 22.5762C16.0677 22.3451 16.0059 22.0765 16.0059 21.7705C16.0059 21.4743 16.071 21.2057 16.2012 20.9648C16.3314 20.7207 16.5137 20.5124 16.748 20.3398C16.9824 20.1641 17.2591 20.029 17.5781 19.9346C17.9004 19.8402 18.2536 19.793 18.6377 19.793C19.1618 19.793 19.6191 19.8874 20.0098 20.0762C20.4004 20.265 20.7031 20.5238 20.918 20.8525C21.1361 21.1813 21.2451 21.5573 21.2451 21.9805H19.79C19.79 21.7721 19.7461 21.5898 19.6582 21.4336C19.5736 21.2741 19.4434 21.1488 19.2676 21.0576C19.0951 20.9665 18.877 20.9209 18.6133 20.9209C18.3594 20.9209 18.1478 20.96 17.9785 21.0381C17.8092 21.113 17.6823 21.2155 17.5977 21.3457C17.513 21.4727 17.4707 21.6159 17.4707 21.7754C17.4707 21.8958 17.5 22.0049 17.5586 22.1025C17.6204 22.2002 17.7116 22.2913 17.832 22.376C17.9525 22.4606 18.1006 22.5404 18.2764 22.6152C18.4521 22.6901 18.6556 22.7633 18.8867 22.835C19.2741 22.9521 19.6143 23.084 19.9072 23.2305C20.2035 23.377 20.4508 23.5413 20.6494 23.7236C20.848 23.9059 20.9977 24.1126 21.0986 24.3438C21.1995 24.5749 21.25 24.8369 21.25 25.1299C21.25 25.4391 21.1898 25.7158 21.0693 25.96C20.9489 26.2041 20.7747 26.4108 20.5469 26.5801C20.319 26.7493 20.0472 26.8779 19.7314 26.9658C19.4157 27.0537 19.0625 27.0977 18.6719 27.0977C18.3203 27.0977 17.9736 27.0521 17.6318 26.9609C17.29 26.8665 16.9792 26.7249 16.6992 26.5361C16.4225 26.3473 16.2012 26.1064 16.0352 25.8135C15.8691 25.5205 15.7861 25.1738 15.7861 24.7734H17.2559C17.2559 24.9948 17.29 25.182 17.3584 25.335C17.4268 25.488 17.5228 25.6117 17.6465 25.7061C17.7734 25.8005 17.9232 25.8688 18.0957 25.9111C18.2715 25.9535 18.4635 25.9746 18.6719 25.9746C18.9258 25.9746 19.1341 25.9388 19.2969 25.8672C19.4629 25.7956 19.585 25.6963 19.6631 25.5693C19.7445 25.4424 19.7852 25.2992 19.7852 25.1396ZM25.4248 19.8906V27H23.9648V19.8906H25.4248ZM27.6123 19.8906V21.0381H21.8115V19.8906H27.6123ZM30.8105 21.1064L28.877 27H27.3193L29.9609 19.8906H30.9521L30.8105 21.1064ZM32.417 27L30.4785 21.1064L30.3223 19.8906H31.3232L33.9795 27H32.417ZM32.3291 24.3535V25.501H28.5742V24.3535H32.3291ZM34.6387 19.8906H37.29C37.8337 19.8906 38.3008 19.972 38.6914 20.1348C39.0853 20.2975 39.388 20.5384 39.5996 20.8574C39.8112 21.1764 39.917 21.5687 39.917 22.0342C39.917 22.415 39.8519 22.7422 39.7217 23.0156C39.5947 23.2858 39.4141 23.512 39.1797 23.6943C38.9486 23.8734 38.6768 24.0166 38.3643 24.124L37.9004 24.3682H35.5957L35.5859 23.2256H37.2998C37.557 23.2256 37.7702 23.18 37.9395 23.0889C38.1087 22.9977 38.2357 22.8708 38.3203 22.708C38.4082 22.5452 38.4521 22.3564 38.4521 22.1416C38.4521 21.9137 38.4098 21.7168 38.3252 21.5508C38.2406 21.3848 38.112 21.2578 37.9395 21.1699C37.7669 21.082 37.5505 21.0381 37.29 21.0381H36.1035V27H34.6387V19.8906ZM38.6133 27L36.9922 23.8311L38.54 23.8213L40.1807 26.9316V27H38.6133ZM43.9307 19.8906V27H42.4707V19.8906H43.9307ZM46.1182 19.8906V21.0381H40.3174V19.8906H46.1182Z" fill="#FBC46D"/>
<g clip-path="url(#clip0_187_354)">
<path d="M38.9178 72.2254C38.8954 73.9625 38.273 75.6384 37.1561 76.969C36.6089 77.6447 36.349 78.5255 35.9113 79.2915C35.7181 79.5536 35.4939 79.7914 35.2439 80C35.0332 79.71 34.5873 79.3489 34.6502 79.1465C34.9457 78.2219 35.1974 77.1933 35.8047 76.4766C37.0077 75.1 37.6407 73.3165 37.5746 71.4896C37.5226 69.1342 37.5746 66.7761 37.5582 64.418C37.5418 62.1584 36.6062 60.4131 34.6311 59.2396C32.8776 58.2 31.1487 57.1195 29.4061 56.0635C27.4912 54.8982 26.3969 55.2593 25.4395 57.2945C25.196 57.8116 24.7747 58.2465 24.4355 58.7171C24.255 58.1234 23.9267 57.5325 23.9185 56.9362C23.872 53.038 23.8911 49.137 23.8966 45.2388C23.8966 44.2321 23.7215 43.3239 22.6765 42.8725C21.3087 42.2816 19.9738 43.2281 19.9409 44.8859C19.8972 47.6953 19.9273 50.5075 19.9273 53.317C19.9273 56.7173 19.9902 60.1204 19.889 63.518C19.8589 64.5603 19.4239 65.6053 19.0683 66.6175C18.9944 66.839 18.5212 66.9266 18.2312 67.077C18.1546 66.7296 17.9111 66.3083 18.026 66.0457C19.3118 63.1651 18.5294 60.1368 18.6525 57.1851C18.6962 56.121 17.6977 56.0581 16.9236 56.3289C15.9005 56.69 15.2822 57.6256 15.6652 58.5858C16.4667 60.621 16.319 62.6891 16.2123 64.76C16.0181 69.0138 17.5801 72.2774 21.0188 74.827C21.8942 75.4781 22.299 76.8021 22.8051 77.8717C22.8981 78.0741 22.4385 78.5365 22.2361 78.8811C21.9863 78.6152 21.7525 78.3348 21.5358 78.0413C20.9887 77.2206 20.6358 76.1264 19.8944 75.5437C16.5461 72.8245 14.8172 69.4242 14.9758 65.0472C15.0497 62.9983 15.1318 60.9602 14.4014 58.9003C13.6053 56.6599 15.5558 54.8927 18.6306 54.931C18.6306 51.8863 18.6306 48.9455 18.6306 46.0075C18.6127 45.4599 18.6282 44.9118 18.6771 44.3661C18.8987 42.5989 20.3184 41.3351 21.979 41.3734C22.8298 41.3871 23.6404 41.7379 24.2328 42.3487C24.8252 42.9596 25.151 43.7806 25.1386 44.6315C25.1905 48.0291 25.155 51.4267 25.155 55.1799C27.4884 52.9422 29.3295 54.3921 31.2198 55.5766C32.6396 56.4684 34.0867 57.3137 35.5065 58.2028C37.7633 59.6171 38.8849 61.6879 38.915 64.3305C38.9451 66.9731 38.9369 69.5965 38.9178 72.2254Z" fill="#F59C0D"/>
<path d="M33.0827 52.6877C36.669 45.4411 35.9496 39.059 29.3294 34.061C26.364 31.8261 22.8515 31.2735 19.2269 32.0887C13.9198 33.2787 10.4948 36.5887 9.15166 41.8329C7.80848 47.077 9.66321 51.4512 13.1757 55.344C9.31032 53.347 7.11911 46.88 8.33645 41.8465C9.82461 35.686 15.066 31.2899 21.2485 31.0136C24.2605 30.8606 27.2413 31.6852 29.7465 33.3642C32.2518 35.0433 34.1474 37.4869 35.1508 40.331C36.6909 44.7654 35.7717 50.8932 33.0827 52.6877Z" fill="#F59C0D"/>
<path d="M29.3732 50.565C32.0103 45.1841 31.4851 40.5828 26.2601 37.4341C23.1661 35.5684 19.763 35.7681 16.9317 38.0223C12.1608 41.8248 12.2456 46.4725 15.4818 51.4458C13.6818 50.9945 12.2347 47.4984 12.4398 44.6424C12.7736 39.9345 16.3162 36.1074 20.7752 35.6314C25.6227 35.1116 29.9559 37.8992 31.2881 42.3965C32.1991 45.4604 31.3565 49.5638 29.3732 50.565Z" fill="#F59C0D"/>
</g>
<defs>
<clipPath id="clip0_187_354">
<rect width="30.9369" height="49" fill="white" transform="translate(8 31)"/>
</clipPath>
</defs>
</svg>
