<svg width="42" height="80" viewBox="0 0 42 80" fill="none" xmlns="http://www.w3.org/2000/svg">
<path d="M9.10156 3.625V15H6.76562V3.625H9.10156ZM12.6016 3.625V5.46094H3.32031V3.625H12.6016ZM17.7188 5.57031L14.625 15H12.1328L16.3594 3.625H17.9453L17.7188 5.57031ZM20.2891 15L17.1875 5.57031L16.9375 3.625H18.5391L22.7891 15H20.2891ZM20.1484 10.7656V12.6016H14.1406V10.7656H20.1484ZM28.2734 10.9453H25.375V9.11719H28.2734C28.7214 9.11719 29.0859 9.04427 29.3672 8.89844C29.6484 8.7474 29.8542 8.53906 29.9844 8.27344C30.1146 8.00781 30.1797 7.70833 30.1797 7.375C30.1797 7.03646 30.1146 6.72135 29.9844 6.42969C29.8542 6.13802 29.6484 5.90365 29.3672 5.72656C29.0859 5.54948 28.7214 5.46094 28.2734 5.46094H26.1875V15H23.8438V3.625H28.2734C29.1641 3.625 29.9271 3.78646 30.5625 4.10938C31.2031 4.42708 31.6927 4.86719 32.0312 5.42969C32.3698 5.99219 32.5391 6.63542 32.5391 7.35938C32.5391 8.09375 32.3698 8.72917 32.0312 9.26562C31.6927 9.80208 31.2031 10.2161 30.5625 10.5078C29.9271 10.7995 29.1641 10.9453 28.2734 10.9453Z" fill="#FF0000"/>
<path d="M3.81348 19.8906V27H2.35352V19.8906H3.81348ZM6.00098 19.8906V21.0381H0.200195V19.8906H6.00098ZM12.5391 23.2793V23.6162C12.5391 24.1566 12.4658 24.6416 12.3193 25.0713C12.1729 25.501 11.9661 25.8672 11.6992 26.1699C11.4323 26.4694 11.1133 26.6989 10.7422 26.8584C10.3743 27.0179 9.96582 27.0977 9.5166 27.0977C9.07064 27.0977 8.66211 27.0179 8.29102 26.8584C7.92318 26.6989 7.60417 26.4694 7.33398 26.1699C7.0638 25.8672 6.85384 25.501 6.7041 25.0713C6.55762 24.6416 6.48438 24.1566 6.48438 23.6162V23.2793C6.48438 22.7357 6.55762 22.2507 6.7041 21.8242C6.85059 21.3945 7.05729 21.0283 7.32422 20.7256C7.5944 20.4229 7.91341 20.1917 8.28125 20.0322C8.65234 19.8727 9.06087 19.793 9.50684 19.793C9.95605 19.793 10.3646 19.8727 10.7324 20.0322C11.1035 20.1917 11.4225 20.4229 11.6895 20.7256C11.9596 21.0283 12.168 21.3945 12.3145 21.8242C12.4642 22.2507 12.5391 22.7357 12.5391 23.2793ZM11.0596 23.6162V23.2695C11.0596 22.8919 11.0254 22.5599 10.957 22.2734C10.8887 21.987 10.7878 21.7461 10.6543 21.5508C10.5208 21.3555 10.3581 21.209 10.166 21.1113C9.97396 21.0104 9.75423 20.96 9.50684 20.96C9.25944 20.96 9.03971 21.0104 8.84766 21.1113C8.65885 21.209 8.49772 21.3555 8.36426 21.5508C8.23405 21.7461 8.13477 21.987 8.06641 22.2734C7.99805 22.5599 7.96387 22.8919 7.96387 23.2695V23.6162C7.96387 23.9906 7.99805 24.3226 8.06641 24.6123C8.13477 24.8988 8.23568 25.1413 8.36914 25.3398C8.5026 25.5352 8.66536 25.6833 8.85742 25.7842C9.04948 25.8851 9.26921 25.9355 9.5166 25.9355C9.764 25.9355 9.98372 25.8851 10.1758 25.7842C10.3678 25.6833 10.529 25.5352 10.6592 25.3398C10.7894 25.1413 10.8887 24.8988 10.957 24.6123C11.0254 24.3226 11.0596 23.9906 11.0596 23.6162ZM19.7852 25.1396C19.7852 25.0127 19.7656 24.8988 19.7266 24.7979C19.6908 24.6937 19.6224 24.5993 19.5215 24.5146C19.4206 24.4268 19.279 24.3405 19.0967 24.2559C18.9144 24.1712 18.6784 24.0833 18.3887 23.9922C18.0664 23.888 17.7604 23.7708 17.4707 23.6406C17.1842 23.5104 16.9303 23.359 16.709 23.1865C16.4909 23.0107 16.3184 22.8073 16.1914 22.5762C16.0677 22.3451 16.0059 22.0765 16.0059 21.7705C16.0059 21.4743 16.071 21.2057 16.2012 20.9648C16.3314 20.7207 16.5137 20.5124 16.748 20.3398C16.9824 20.1641 17.2591 20.029 17.5781 19.9346C17.9004 19.8402 18.2536 19.793 18.6377 19.793C19.1618 19.793 19.6191 19.8874 20.0098 20.0762C20.4004 20.265 20.7031 20.5238 20.918 20.8525C21.1361 21.1813 21.2451 21.5573 21.2451 21.9805H19.79C19.79 21.7721 19.7461 21.5898 19.6582 21.4336C19.5736 21.2741 19.4434 21.1488 19.2676 21.0576C19.0951 20.9665 18.877 20.9209 18.6133 20.9209C18.3594 20.9209 18.1478 20.96 17.9785 21.0381C17.8092 21.113 17.6823 21.2155 17.5977 21.3457C17.513 21.4727 17.4707 21.6159 17.4707 21.7754C17.4707 21.8958 17.5 22.0049 17.5586 22.1025C17.6204 22.2002 17.7116 22.2913 17.832 22.376C17.9525 22.4606 18.1006 22.5404 18.2764 22.6152C18.4521 22.6901 18.6556 22.7633 18.8867 22.835C19.2741 22.9521 19.6143 23.084 19.9072 23.2305C20.2035 23.377 20.4508 23.5413 20.6494 23.7236C20.848 23.9059 20.9977 24.1126 21.0986 24.3438C21.1995 24.5749 21.25 24.8369 21.25 25.1299C21.25 25.4391 21.1898 25.7158 21.0693 25.96C20.9489 26.2041 20.7747 26.4108 20.5469 26.5801C20.319 26.7493 20.0472 26.8779 19.7314 26.9658C19.4157 27.0537 19.0625 27.0977 18.6719 27.0977C18.3203 27.0977 17.9736 27.0521 17.6318 26.9609C17.29 26.8665 16.9792 26.7249 16.6992 26.5361C16.4225 26.3473 16.2012 26.1064 16.0352 25.8135C15.8691 25.5205 15.7861 25.1738 15.7861 24.7734H17.2559C17.2559 24.9948 17.29 25.182 17.3584 25.335C17.4268 25.488 17.5228 25.6117 17.6465 25.7061C17.7734 25.8005 17.9232 25.8688 18.0957 25.9111C18.2715 25.9535 18.4635 25.9746 18.6719 25.9746C18.9258 25.9746 19.1341 25.9388 19.2969 25.8672C19.4629 25.7956 19.585 25.6963 19.6631 25.5693C19.7445 25.4424 19.7852 25.2992 19.7852 25.1396ZM25.4248 19.8906V27H23.9648V19.8906H25.4248ZM27.6123 19.8906V21.0381H21.8115V19.8906H27.6123ZM34.1504 23.2793V23.6162C34.1504 24.1566 34.0771 24.6416 33.9307 25.0713C33.7842 25.501 33.5775 25.8672 33.3105 26.1699C33.0436 26.4694 32.7246 26.6989 32.3535 26.8584C31.9857 27.0179 31.5771 27.0977 31.1279 27.0977C30.682 27.0977 30.2734 27.0179 29.9023 26.8584C29.5345 26.6989 29.2155 26.4694 28.9453 26.1699C28.6751 25.8672 28.4652 25.501 28.3154 25.0713C28.1689 24.6416 28.0957 24.1566 28.0957 23.6162V23.2793C28.0957 22.7357 28.1689 22.2507 28.3154 21.8242C28.4619 21.3945 28.6686 21.0283 28.9355 20.7256C29.2057 20.4229 29.5247 20.1917 29.8926 20.0322C30.2637 19.8727 30.6722 19.793 31.1182 19.793C31.5674 19.793 31.9759 19.8727 32.3438 20.0322C32.7148 20.1917 33.0339 20.4229 33.3008 20.7256C33.571 21.0283 33.7793 21.3945 33.9258 21.8242C34.0755 22.2507 34.1504 22.7357 34.1504 23.2793ZM32.6709 23.6162V23.2695C32.6709 22.8919 32.6367 22.5599 32.5684 22.2734C32.5 21.987 32.3991 21.7461 32.2656 21.5508C32.1322 21.3555 31.9694 21.209 31.7773 21.1113C31.5853 21.0104 31.3656 20.96 31.1182 20.96C30.8708 20.96 30.651 21.0104 30.459 21.1113C30.2702 21.209 30.109 21.3555 29.9756 21.5508C29.8454 21.7461 29.7461 21.987 29.6777 22.2734C29.6094 22.5599 29.5752 22.8919 29.5752 23.2695V23.6162C29.5752 23.9906 29.6094 24.3226 29.6777 24.6123C29.7461 24.8988 29.847 25.1413 29.9805 25.3398C30.1139 25.5352 30.2767 25.6833 30.4688 25.7842C30.6608 25.8851 30.8805 25.9355 31.1279 25.9355C31.3753 25.9355 31.5951 25.8851 31.7871 25.7842C31.9792 25.6833 32.1403 25.5352 32.2705 25.3398C32.4007 25.1413 32.5 24.8988 32.5684 24.6123C32.6367 24.3226 32.6709 23.9906 32.6709 23.6162ZM37.9736 24.4658H36.1621V23.3232H37.9736C38.2536 23.3232 38.4814 23.2777 38.6572 23.1865C38.833 23.0921 38.9616 22.9619 39.043 22.7959C39.1243 22.6299 39.165 22.4427 39.165 22.2344C39.165 22.0228 39.1243 21.8258 39.043 21.6436C38.9616 21.4613 38.833 21.3148 38.6572 21.2041C38.4814 21.0934 38.2536 21.0381 37.9736 21.0381H36.6699V27H35.2051V19.8906H37.9736C38.5303 19.8906 39.0072 19.9915 39.4043 20.1934C39.8047 20.3919 40.1107 20.667 40.3223 21.0186C40.5339 21.3701 40.6396 21.7721 40.6396 22.2246C40.6396 22.6836 40.5339 23.0807 40.3223 23.416C40.1107 23.7513 39.8047 24.0101 39.4043 24.1924C39.0072 24.3747 38.5303 24.4658 37.9736 24.4658Z" fill="#E8502F"/>
<g clip-path="url(#clip0_187_363)">
<path d="M33.9178 72.2254C33.8954 73.9625 33.273 75.6384 32.1561 76.969C31.6089 77.6447 31.349 78.5255 30.9113 79.2915C30.7181 79.5536 30.4939 79.7914 30.2439 80C30.0332 79.71 29.5873 79.3489 29.6502 79.1465C29.9457 78.2219 30.1974 77.1933 30.8047 76.4766C32.0077 75.1 32.6407 73.3165 32.5746 71.4896C32.5226 69.1342 32.5746 66.7761 32.5582 64.418C32.5418 62.1584 31.6062 60.4131 29.6311 59.2396C27.8776 58.2 26.1487 57.1195 24.4061 56.0635C22.4912 54.8982 21.3969 55.2593 20.4395 57.2945C20.196 57.8116 19.7747 58.2465 19.4355 58.7171C19.255 58.1234 18.9267 57.5325 18.9185 56.9362C18.872 53.038 18.8911 49.137 18.8966 45.2388C18.8966 44.2321 18.7215 43.3239 17.6765 42.8725C16.3087 42.2816 14.9738 43.2281 14.9409 44.8859C14.8972 47.6953 14.9273 50.5075 14.9273 53.317C14.9273 56.7173 14.9902 60.1204 14.889 63.518C14.8589 64.5603 14.4239 65.6053 14.0683 66.6175C13.9944 66.839 13.5212 66.9266 13.2312 67.077C13.1546 66.7296 12.9111 66.3083 13.026 66.0457C14.3118 63.1651 13.5294 60.1368 13.6525 57.1851C13.6962 56.121 12.6977 56.0581 11.9236 56.3289C10.9005 56.69 10.2822 57.6256 10.6652 58.5858C11.4667 60.621 11.319 62.6891 11.2123 64.76C11.0181 69.0138 12.5801 72.2774 16.0188 74.827C16.8942 75.4781 17.299 76.8021 17.8051 77.8717C17.8981 78.0741 17.4385 78.5365 17.2361 78.8811C16.9863 78.6152 16.7525 78.3348 16.5358 78.0413C15.9887 77.2206 15.6358 76.1264 14.8944 75.5437C11.5461 72.8245 9.81717 69.4242 9.97583 65.0472C10.0497 62.9983 10.1318 60.9602 9.40135 58.9003C8.6053 56.6599 10.5558 54.8927 13.6306 54.931C13.6306 51.8863 13.6306 48.9455 13.6306 46.0075C13.6127 45.4599 13.6282 44.9118 13.6771 44.3661C13.8987 42.5989 15.3184 41.3351 16.979 41.3734C17.8298 41.3871 18.6404 41.7379 19.2328 42.3487C19.8252 42.9596 20.151 43.7806 20.1386 44.6315C20.1905 48.0291 20.155 51.4267 20.155 55.1799C22.4884 52.9422 24.3295 54.3921 26.2198 55.5766C27.6396 56.4684 29.0867 57.3137 30.5065 58.2028C32.7633 59.6171 33.8849 61.6879 33.915 64.3305C33.9451 66.9731 33.9369 69.5965 33.9178 72.2254Z" fill="#FF0000"/>
<path d="M28.0827 52.6877C31.669 45.4411 30.9496 39.059 24.3294 34.061C21.364 31.8261 17.8515 31.2735 14.2269 32.0887C8.9198 33.2787 5.49484 36.5887 4.15166 41.8329C2.80848 47.077 4.66321 51.4512 8.17572 55.344C4.31032 53.347 2.11911 46.88 3.33645 41.8465C4.82461 35.686 10.066 31.2899 16.2485 31.0136C19.2605 30.8606 22.2413 31.6852 24.7465 33.3642C27.2518 35.0433 29.1474 37.4869 30.1508 40.331C31.6909 44.7654 30.7717 50.8932 28.0827 52.6877Z" fill="#FF0000"/>
<path d="M24.3732 50.565C27.0103 45.1841 26.4851 40.5828 21.2601 37.4341C18.1661 35.5684 14.763 35.7681 11.9317 38.0223C7.16081 41.8248 7.24561 46.4725 10.4818 51.4458C8.6818 50.9945 7.23467 47.4984 7.43984 44.6424C7.77358 39.9345 11.3162 36.1074 15.7752 35.6314C20.6227 35.1116 24.9559 37.8992 26.2881 42.3965C27.1991 45.4604 26.3565 49.5638 24.3732 50.565Z" fill="#FF0000"/>
</g>
<defs>
<clipPath id="clip0_187_363">
<rect width="30.9369" height="49" fill="white" transform="translate(3 31)"/>
</clipPath>
</defs>
</svg>
