<svg width="30" height="30" viewBox="0 0 30 30" fill="none" xmlns="http://www.w3.org/2000/svg">
<g clip-path="url(#clip0_107_246)">
<path d="M15 30C15.9946 30 16.9484 29.6049 17.6516 28.9016C18.3549 28.1984 18.75 27.2446 18.75 26.25H11.25C11.25 27.2446 11.6451 28.1984 12.3483 28.9016C13.0516 29.6049 14.0054 30 15 30ZM15 3.59624L13.5056 3.89812C11.8106 4.24349 10.2869 5.16394 9.19247 6.50366C8.09807 7.84338 7.50019 9.52009 7.5 11.25C7.5 12.4275 7.24875 15.3694 6.63937 18.2662C6.33938 19.7044 5.93437 21.2025 5.39625 22.5H24.6038C24.0656 21.2025 23.6625 19.7062 23.3606 18.2662C22.7512 15.3694 22.5 12.4275 22.5 11.25C22.4994 9.52041 21.9013 7.84414 20.8069 6.50481C19.7126 5.16547 18.1891 4.2453 16.4944 3.89999L15 3.59624ZM26.6625 22.5C27.0806 23.3381 27.5644 24.0019 28.125 24.375H1.875C2.43563 24.0019 2.91937 23.3381 3.3375 22.5C5.025 19.125 5.625 12.9 5.625 11.25C5.625 6.71249 8.85 2.92499 13.1344 2.06062C13.1082 1.79991 13.137 1.5366 13.2188 1.28769C13.3007 1.03878 13.4338 0.809786 13.6095 0.615476C13.7853 0.421167 13.9999 0.265857 14.2394 0.159564C14.4789 0.0532698 14.738 -0.00164795 15 -0.00164795C15.262 -0.00164795 15.5211 0.0532698 15.7606 0.159564C16.0001 0.265857 16.2147 0.421167 16.3905 0.615476C16.5662 0.809786 16.6993 1.03878 16.7812 1.28769C16.863 1.5366 16.8918 1.79991 16.8656 2.06062C18.9849 2.49168 20.8901 3.64192 22.2586 5.31656C23.627 6.99119 24.3747 9.08732 24.375 11.25C24.375 12.9 24.975 19.125 26.6625 22.5Z" fill="white"/>
</g>
<defs>
<clipPath id="clip0_107_246">
<rect width="30" height="30" fill="white"/>
</clipPath>
</defs>
</svg>
