<svg width="30" height="26" viewBox="0 0 30 26" fill="none" xmlns="http://www.w3.org/2000/svg">
<path fill-rule="evenodd" clip-rule="evenodd" d="M8.5 14C9.46615 14 10.3927 13.5786 11.0759 12.8284C11.7591 12.0783 12.1429 11.0609 12.1429 10C12.1429 8.93913 11.7591 7.92172 11.0759 7.17157C10.3927 6.42143 9.46615 6 8.5 6C7.53385 6 6.60728 6.42143 5.92411 7.17157C5.24094 7.92172 4.85714 8.93913 4.85714 10C4.85714 11.0609 5.24094 12.0783 5.92411 12.8284C6.60728 13.5786 7.53385 14 8.5 14ZM0 26C-1.66332e-08 24.7743 0.219859 23.5607 0.647024 22.4283C1.07419 21.2959 1.70029 20.267 2.48959 19.4003C3.27889 18.5337 4.21592 17.8462 5.24719 17.3771C6.27846 16.9081 7.38376 16.6667 8.5 16.6667C9.61624 16.6667 10.7215 16.9081 11.7528 17.3771C12.7841 17.8462 13.7211 18.5337 14.5104 19.4003C15.2997 20.267 15.9258 21.2959 16.353 22.4283C16.7801 23.5607 17 24.7743 17 26H0Z" fill="white"/>
<path d="M20.8125 17.0625C20.8125 18.5128 19.3425 19.6875 17.5312 19.6875C15.72 19.6875 14.25 18.5128 14.25 17.0625C14.25 15.6122 15.72 14.4375 17.5312 14.4375C19.3425 14.4375 20.8125 15.6122 20.8125 17.0625Z" fill="white"/>
<path fill-rule="evenodd" clip-rule="evenodd" d="M20.8125 3.9375V17.0625H19.5V3.9375H20.8125Z" fill="white"/>
<path d="M19.5 3.70125C19.5002 3.39794 19.6054 3.10406 19.7978 2.86957C19.9902 2.63507 20.2578 2.47445 20.5552 2.415L24.4927 1.6275C24.6831 1.58946 24.8795 1.5941 25.0678 1.64111C25.2562 1.68811 25.4317 1.7763 25.5819 1.89933C25.732 2.02235 25.853 2.17715 25.9361 2.35256C26.0192 2.52798 26.0624 2.71964 26.0625 2.91375V5.25L19.5 6.5625V3.70125Z" fill="white"/>
</svg>
