<svg width="30" height="30" viewBox="0 0 30 30" fill="none" xmlns="http://www.w3.org/2000/svg">
<g clip-path="url(#clip0_43_202)">
<path d="M30 20.7703H26.2278V28.4283H30V20.7703Z" fill="white"/>
<path d="M18.1205 7.3216C17.7436 7.65407 17.3998 7.43975 17.1025 7.21031C16.03 6.38598 15 5.49159 13.9023 4.70024C13.3391 4.30406 12.7216 3.99748 12.0706 3.79073C11.7295 3.67945 11.2742 3.79073 10.9238 3.94323C10.7818 4.00918 10.669 4.57109 10.7791 4.71672C11.0127 5.02722 11.3778 5.36794 11.7282 5.42152C12.9504 5.59848 14.1185 6.05769 15.146 6.76518C15.4391 6.96608 15.7035 7.2084 15.9318 7.48509C16.2397 7.86428 16.4919 8.38773 16.1256 8.77654C15.8508 9.0678 15.3398 9.1887 14.9164 9.2409C14.5872 9.28487 14.2222 9.14199 13.889 9.03345C12.429 8.55672 11.0154 8.97712 9.58986 9.21618C8.44837 9.40852 7.41173 9.23678 6.50385 8.42482C5.89727 7.88351 5.21371 7.49058 4.36953 7.47684C3.88506 7.4686 3.68596 7.15948 3.69791 6.66076C3.71517 5.95459 3.69791 5.24841 3.69791 4.54087C3.69791 3.85393 3.6634 3.16699 3.71914 2.49242C3.7364 2.27122 3.98461 1.88928 4.13459 1.88928C5.95169 1.88928 7.57234 1.08557 9.16778 0.39588C10.6212 -0.231982 11.8012 -0.0465087 13.1643 0.571736C14.9084 1.36309 16.3021 2.42922 17.1224 4.24548C17.4383 4.94341 17.867 5.58639 18.2121 6.27058C18.394 6.61542 18.4802 7.00148 18.1205 7.3216Z" fill="white"/>
<path d="M25.3464 27.3498C25.3339 27.4735 25.2953 27.5928 25.2334 27.6994C25.1715 27.806 25.0877 27.8972 24.9881 27.9667C24.0908 28.4915 23.1749 28.9847 22.2485 29.4518C20.9119 30.125 19.5408 30.202 18.1789 29.5452C15.5084 28.2565 12.9334 26.7975 10.5495 24.9853C10.0398 24.5993 9.79958 24.0923 9.92169 23.4493C9.96017 23.1849 10.0823 22.9411 10.2689 22.7562C10.4555 22.5712 10.6961 22.4555 10.953 22.4272C11.3408 22.37 11.7362 22.4173 12.1011 22.5646C13.0064 22.9699 13.8851 23.4425 14.7558 23.9247C14.9776 24.0554 15.1537 24.2555 15.2588 24.4962C15.4082 24.891 15.6539 25.239 15.9719 25.5063C16.2898 25.7736 16.6693 25.951 17.0733 26.0212C17.7206 26.1488 18.3789 26.2068 19.0377 26.1944C19.2594 26.1944 19.631 25.9086 19.6615 25.708C19.7292 25.2684 19.3456 25.2642 19.0218 25.2725C18.605 25.2821 18.1763 25.3398 17.7714 25.2642C17.3069 25.1777 16.8038 25.0554 16.4335 24.782C16.168 24.5897 15.9265 24.0703 15.9981 23.7846C16.0698 23.4988 16.5702 23.0853 16.8357 23.1182C18.463 23.3271 19.8128 22.6717 21.172 21.8969C22.4715 21.155 23.9103 21.4847 25.369 21.4366C25.3637 23.4837 25.3743 25.4167 25.3464 27.3498Z" fill="white"/>
<path d="M22.7489 16.1376L15.5216 20.8898L8.93814 10.3728C10.1619 9.97848 10.2655 10.0142 10.9132 11.0391L15.1407 17.6983C15.7951 17.495 16.4388 17.4441 16.9193 18.1517C17.798 17.5719 18.6448 17.021 19.485 16.4453C19.5938 16.3698 19.708 16.1389 19.6735 16.0332C19.4558 15.3751 19.6934 14.8777 20.1765 14.4367C19.2766 13.0216 18.4138 11.6244 17.506 10.2587C17.1317 9.69683 16.8582 9.17751 17.352 8.51942C17.8471 8.44111 18.1378 8.76397 18.4139 9.2201C19.8354 11.5172 21.2795 13.7979 22.7489 16.1376Z" fill="white"/>
<path d="M25.6212 16.672L18.4072 21.4037L17.7834 20.4419L22.2963 17.473C22.4436 17.3754 22.5976 17.2861 22.7449 17.1872C23.6196 16.6019 23.7404 16.1087 23.1803 15.2075C21.837 13.0464 20.4792 10.8962 19.128 8.74062C19.0204 8.57026 18.9143 8.39715 18.8187 8.2419C19.0258 7.78578 19.2262 7.34751 19.4585 6.8378C21.4932 10.0856 23.5307 13.3349 25.6212 16.672Z" fill="white"/>
<path d="M3.02647 7.68685C3.02647 7.81599 2.77029 8.04405 2.62827 8.0523C1.90376 8.09695 1.17731 8.09695 0.452798 8.0523C0.293521 8.03993 0.0267298 7.74318 0.0254025 7.57282C-0.00468332 5.6155 -0.00468332 3.65772 0.0254025 1.69949C0.0254025 1.52638 0.290865 1.21725 0.443506 1.20764C1.27441 1.15818 2.10929 1.18428 3.04903 1.18428C3.04505 3.41684 3.05169 5.55184 3.02647 7.68685Z" fill="white"/>
<path d="M17.2073 12.3745C17.2147 12.6368 17.1721 12.898 17.0819 13.1433C16.9917 13.3885 16.8557 13.6129 16.6816 13.8037C16.5076 13.9944 16.2989 14.1478 16.0675 14.255C15.8361 14.3622 15.5866 14.4212 15.3332 14.4285C15.0771 14.4335 14.8226 14.3863 14.5842 14.2896C14.3457 14.1928 14.128 14.0484 13.9435 13.8645C13.759 13.6807 13.6113 13.461 13.5088 13.2181C13.4063 12.9752 13.351 12.7137 13.3462 12.4487C13.3413 12.1837 13.3869 11.9202 13.4804 11.6734C13.5738 11.4266 13.7134 11.2013 13.891 11.0103C14.0686 10.8194 14.2808 10.6664 14.5155 10.5604C14.7502 10.4543 15.0028 10.3971 15.2588 10.392C15.7712 10.3876 16.2642 10.594 16.6296 10.9657C16.995 11.3375 17.2028 11.8442 17.2073 12.3745Z" fill="white"/>
</g>
<defs>
<clipPath id="clip0_43_202">
<rect width="30" height="30" fill="white"/>
</clipPath>
</defs>
</svg>
